<svg width="2198" height="645" viewBox="0 0 2198 645" fill="none" xmlns="http://www.w3.org/2000/svg">
<path d="M334.884 227H312.574V62.205H334.884V227ZM391.57 57.605V227H371.1V57.605H391.57ZM525.276 110.505L460.301 261.385C459.611 262.918 458.729 264.145 457.656 265.065C456.659 265.985 455.087 266.445 452.941 266.445H437.761L459.036 220.215L410.966 110.505H428.676C430.439 110.505 431.819 110.965 432.816 111.885C433.889 112.728 434.617 113.687 435.001 114.76L466.166 188.13C467.392 191.35 468.427 194.723 469.271 198.25C470.344 194.647 471.494 191.235 472.721 188.015L502.966 114.76C503.426 113.533 504.192 112.537 505.266 111.77C506.416 110.927 507.681 110.505 509.061 110.505H525.276ZM604.248 174.56C594.818 174.867 586.768 175.633 580.098 176.86C573.505 178.01 568.1 179.543 563.883 181.46C559.743 183.377 556.715 185.638 554.798 188.245C552.958 190.852 552.038 193.765 552.038 196.985C552.038 200.052 552.537 202.697 553.533 204.92C554.53 207.143 555.872 208.983 557.558 210.44C559.322 211.82 561.353 212.855 563.653 213.545C566.03 214.158 568.56 214.465 571.243 214.465C574.847 214.465 578.143 214.12 581.133 213.43C584.123 212.663 586.922 211.59 589.528 210.21C592.212 208.83 594.742 207.182 597.118 205.265C599.572 203.348 601.948 201.163 604.248 198.71V174.56ZM538.123 126.95C544.563 120.74 551.502 116.102 558.938 113.035C566.375 109.968 574.617 108.435 583.663 108.435C590.18 108.435 595.968 109.508 601.028 111.655C606.088 113.802 610.343 116.792 613.793 120.625C617.243 124.458 619.85 129.097 621.613 134.54C623.377 139.983 624.258 145.963 624.258 152.48V227H615.173C613.18 227 611.647 226.693 610.573 226.08C609.5 225.39 608.657 224.087 608.043 222.17L605.743 211.13C602.677 213.967 599.687 216.497 596.773 218.72C593.86 220.867 590.793 222.707 587.573 224.24C584.353 225.697 580.903 226.808 577.223 227.575C573.62 228.418 569.595 228.84 565.148 228.84C560.625 228.84 556.37 228.227 552.383 227C548.397 225.697 544.908 223.78 541.918 221.25C539.005 218.72 536.667 215.538 534.903 211.705C533.217 207.795 532.373 203.195 532.373 197.905C532.373 193.305 533.638 188.897 536.168 184.68C538.698 180.387 542.8 176.592 548.473 173.295C554.147 169.998 561.545 167.315 570.668 165.245C579.792 163.098 590.985 161.872 604.248 161.565V152.48C604.248 143.433 602.293 136.61 598.383 132.01C594.473 127.333 588.762 124.995 581.248 124.995C576.188 124.995 571.933 125.647 568.483 126.95C565.11 128.177 562.158 129.595 559.628 131.205C557.175 132.738 555.028 134.157 553.188 135.46C551.425 136.687 549.662 137.3 547.898 137.3C546.518 137.3 545.33 136.955 544.333 136.265C543.337 135.498 542.493 134.578 541.803 133.505L538.123 126.95ZM803.412 87.965C802.722 89.115 801.956 89.9967 801.112 90.61C800.346 91.1467 799.387 91.415 798.237 91.415C796.934 91.415 795.401 90.7633 793.637 89.46C791.874 88.1567 789.651 86.7383 786.967 85.205C784.361 83.595 781.179 82.1383 777.422 80.835C773.742 79.5317 769.257 78.88 763.967 78.88C758.984 78.88 754.576 79.57 750.742 80.95C746.986 82.2533 743.804 84.055 741.197 86.355C738.667 88.655 736.751 91.3767 735.447 94.52C734.144 97.5867 733.492 100.922 733.492 104.525C733.492 109.125 734.604 112.958 736.827 116.025C739.127 119.015 742.117 121.583 745.797 123.73C749.554 125.877 753.771 127.755 758.447 129.365C763.201 130.898 768.031 132.508 772.937 134.195C777.921 135.882 782.751 137.798 787.427 139.945C792.181 142.015 796.397 144.66 800.077 147.88C803.834 151.1 806.824 155.048 809.047 159.725C811.347 164.402 812.497 170.152 812.497 176.975C812.497 184.182 811.271 190.967 808.817 197.33C806.364 203.617 802.761 209.098 798.007 213.775C793.331 218.452 787.542 222.132 780.642 224.815C773.819 227.498 766.037 228.84 757.297 228.84C746.564 228.84 736.827 226.923 728.087 223.09C719.347 219.18 711.872 213.928 705.662 207.335L712.102 196.755C712.716 195.912 713.444 195.222 714.287 194.685C715.207 194.072 716.204 193.765 717.277 193.765C718.274 193.765 719.386 194.187 720.612 195.03C721.916 195.797 723.372 196.793 724.982 198.02C726.592 199.247 728.432 200.588 730.502 202.045C732.572 203.502 734.911 204.843 737.517 206.07C740.201 207.297 743.229 208.332 746.602 209.175C749.976 209.942 753.771 210.325 757.987 210.325C763.277 210.325 767.992 209.597 772.132 208.14C776.272 206.683 779.761 204.652 782.597 202.045C785.511 199.362 787.734 196.18 789.267 192.5C790.801 188.82 791.567 184.718 791.567 180.195C791.567 175.212 790.417 171.148 788.117 168.005C785.894 164.785 782.942 162.102 779.262 159.955C775.582 157.808 771.366 156.007 766.612 154.55C761.859 153.017 757.029 151.483 752.122 149.95C747.216 148.34 742.386 146.5 737.632 144.43C732.879 142.36 728.662 139.677 724.982 136.38C721.302 133.083 718.312 128.982 716.012 124.075C713.789 119.092 712.677 112.958 712.677 105.675C712.677 99.8483 713.789 94.2133 716.012 88.77C718.312 83.3267 721.609 78.4967 725.902 74.28C730.272 70.0633 735.601 66.69 741.887 64.16C748.251 61.63 755.534 60.365 763.737 60.365C772.937 60.365 781.294 61.8217 788.807 64.735C796.397 67.6483 803.067 71.865 808.817 77.385L803.412 87.965ZM857.734 126.03C862.717 120.74 868.237 116.523 874.294 113.38C880.35 110.237 887.327 108.665 895.224 108.665C901.587 108.665 907.184 109.738 912.014 111.885C916.92 113.955 920.984 116.945 924.204 120.855C927.5 124.688 929.992 129.327 931.679 134.77C933.365 140.213 934.209 146.232 934.209 152.825V227H913.624V152.825C913.624 144.008 911.592 137.185 907.529 132.355C903.542 127.448 897.447 124.995 889.244 124.995C883.187 124.995 877.514 126.452 872.224 129.365C867.01 132.278 862.18 136.227 857.734 141.21V227H837.149V57.605H857.734V126.03ZM1043.37 156.045C1043.37 151.292 1042.68 146.96 1041.3 143.05C1040 139.063 1038.04 135.652 1035.44 132.815C1032.91 129.902 1029.8 127.678 1026.12 126.145C1022.44 124.535 1018.26 123.73 1013.59 123.73C1003.77 123.73 995.991 126.605 990.241 132.355C984.567 138.028 981.041 145.925 979.661 156.045H1043.37ZM1059.93 210.67C1057.4 213.737 1054.37 216.42 1050.85 218.72C1047.32 220.943 1043.52 222.783 1039.46 224.24C1035.47 225.697 1031.33 226.77 1027.04 227.46C1022.75 228.227 1018.49 228.61 1014.28 228.61C1006.23 228.61 998.789 227.268 991.966 224.585C985.219 221.825 979.354 217.838 974.371 212.625C969.464 207.335 965.631 200.818 962.871 193.075C960.111 185.332 958.731 176.438 958.731 166.395C958.731 158.268 959.957 150.678 962.411 143.625C964.941 136.572 968.544 130.477 973.221 125.34C977.897 120.127 983.609 116.063 990.356 113.15C997.102 110.16 1004.69 108.665 1013.13 108.665C1020.1 108.665 1026.54 109.853 1032.45 112.23C1038.43 114.53 1043.56 117.903 1047.86 122.35C1052.23 126.72 1055.64 132.163 1058.09 138.68C1060.54 145.12 1061.77 152.48 1061.77 160.76C1061.77 163.98 1061.43 166.127 1060.74 167.2C1060.05 168.273 1058.74 168.81 1056.83 168.81H978.971C979.201 176.17 980.197 182.572 981.961 188.015C983.801 193.458 986.331 198.02 989.551 201.7C992.771 205.303 996.604 208.025 1001.05 209.865C1005.5 211.628 1010.48 212.51 1016 212.51C1021.14 212.51 1025.55 211.935 1029.23 210.785C1032.98 209.558 1036.2 208.255 1038.89 206.875C1041.57 205.495 1043.79 204.23 1045.56 203.08C1047.4 201.853 1048.97 201.24 1050.27 201.24C1051.96 201.24 1053.26 201.892 1054.18 203.195L1059.93 210.67ZM1107.5 198.94C1111.26 204 1115.36 207.565 1119.8 209.635C1124.25 211.705 1129.23 212.74 1134.75 212.74C1145.64 212.74 1154 208.868 1159.82 201.125C1165.65 193.382 1168.56 182.342 1168.56 168.005C1168.56 160.415 1167.87 153.898 1166.49 148.455C1165.19 143.012 1163.27 138.565 1160.74 135.115C1158.21 131.588 1155.11 129.02 1151.43 127.41C1147.75 125.8 1143.57 124.995 1138.89 124.995C1132.22 124.995 1126.36 126.528 1121.3 129.595C1116.32 132.662 1111.72 136.993 1107.5 142.59V198.94ZM1106.46 128.56C1111.37 122.503 1117.04 117.635 1123.48 113.955C1129.92 110.275 1137.28 108.435 1145.56 108.435C1152.31 108.435 1158.41 109.738 1163.85 112.345C1169.29 114.875 1173.93 118.67 1177.76 123.73C1181.6 128.713 1184.55 134.923 1186.62 142.36C1188.69 149.797 1189.72 158.345 1189.72 168.005C1189.72 176.592 1188.57 184.603 1186.27 192.04C1183.97 199.4 1180.64 205.802 1176.27 211.245C1171.98 216.612 1166.69 220.867 1160.4 224.01C1154.19 227.077 1147.17 228.61 1139.35 228.61C1132.22 228.61 1126.09 227.422 1120.95 225.045C1115.89 222.592 1111.41 219.218 1107.5 214.925V266.445H1086.91V110.505H1099.22C1102.13 110.505 1103.93 111.923 1104.62 114.76L1106.46 128.56ZM1293.81 156.045C1293.81 151.292 1293.12 146.96 1291.74 143.05C1290.44 139.063 1288.48 135.652 1285.88 132.815C1283.35 129.902 1280.24 127.678 1276.56 126.145C1272.88 124.535 1268.7 123.73 1264.03 123.73C1254.21 123.73 1246.43 126.605 1240.68 132.355C1235.01 138.028 1231.48 145.925 1230.1 156.045H1293.81ZM1310.37 210.67C1307.84 213.737 1304.81 216.42 1301.29 218.72C1297.76 220.943 1293.96 222.783 1289.9 224.24C1285.91 225.697 1281.77 226.77 1277.48 227.46C1273.19 228.227 1268.93 228.61 1264.72 228.61C1256.67 228.61 1249.23 227.268 1242.41 224.585C1235.66 221.825 1229.79 217.838 1224.81 212.625C1219.9 207.335 1216.07 200.818 1213.31 193.075C1210.55 185.332 1209.17 176.438 1209.17 166.395C1209.17 158.268 1210.4 150.678 1212.85 143.625C1215.38 136.572 1218.98 130.477 1223.66 125.34C1228.34 120.127 1234.05 116.063 1240.8 113.15C1247.54 110.16 1255.13 108.665 1263.57 108.665C1270.54 108.665 1276.98 109.853 1282.89 112.23C1288.87 114.53 1294 117.903 1298.3 122.35C1302.67 126.72 1306.08 132.163 1308.53 138.68C1310.98 145.12 1312.21 152.48 1312.21 160.76C1312.21 163.98 1311.87 166.127 1311.18 167.2C1310.49 168.273 1309.18 168.81 1307.27 168.81H1229.41C1229.64 176.17 1230.64 182.572 1232.4 188.015C1234.24 193.458 1236.77 198.02 1239.99 201.7C1243.21 205.303 1247.04 208.025 1251.49 209.865C1255.94 211.628 1260.92 212.51 1266.44 212.51C1271.58 212.51 1275.99 211.935 1279.67 210.785C1283.42 209.558 1286.64 208.255 1289.33 206.875C1292.01 205.495 1294.23 204.23 1296 203.08C1297.84 201.853 1299.41 201.24 1300.71 201.24C1302.4 201.24 1303.7 201.892 1304.62 203.195L1310.37 210.67ZM1358.51 57.605V227H1338.04V57.605H1358.51ZM1469.68 156.045C1469.68 151.292 1468.99 146.96 1467.61 143.05C1466.31 139.063 1464.35 135.652 1461.74 132.815C1459.21 129.902 1456.11 127.678 1452.43 126.145C1448.75 124.535 1444.57 123.73 1439.89 123.73C1430.08 123.73 1422.3 126.605 1416.55 132.355C1410.88 138.028 1407.35 145.925 1405.97 156.045H1469.68ZM1486.24 210.67C1483.71 213.737 1480.68 216.42 1477.15 218.72C1473.63 220.943 1469.83 222.783 1465.77 224.24C1461.78 225.697 1457.64 226.77 1453.35 227.46C1449.06 228.227 1444.8 228.61 1440.58 228.61C1432.53 228.61 1425.1 227.268 1418.27 224.585C1411.53 221.825 1405.66 217.838 1400.68 212.625C1395.77 207.335 1391.94 200.818 1389.18 193.075C1386.42 185.332 1385.04 176.438 1385.04 166.395C1385.04 158.268 1386.27 150.678 1388.72 143.625C1391.25 136.572 1394.85 130.477 1399.53 125.34C1404.21 120.127 1409.92 116.063 1416.66 113.15C1423.41 110.16 1431 108.665 1439.43 108.665C1446.41 108.665 1452.85 109.853 1458.75 112.23C1464.73 114.53 1469.87 117.903 1474.16 122.35C1478.53 126.72 1481.95 132.163 1484.4 138.68C1486.85 145.12 1488.08 152.48 1488.08 160.76C1488.08 163.98 1487.73 166.127 1487.04 167.2C1486.35 168.273 1485.05 168.81 1483.13 168.81H1405.28C1405.51 176.17 1406.51 182.572 1408.27 188.015C1410.11 193.458 1412.64 198.02 1415.86 201.7C1419.08 205.303 1422.91 208.025 1427.36 209.865C1431.81 211.628 1436.79 212.51 1442.31 212.51C1447.45 212.51 1451.85 211.935 1455.53 210.785C1459.29 209.558 1462.51 208.255 1465.19 206.875C1467.88 205.495 1470.1 204.23 1471.86 203.08C1473.7 201.853 1475.28 201.24 1476.58 201.24C1478.27 201.24 1479.57 201.892 1480.49 203.195L1486.24 210.67ZM1610.57 110.505L1563.08 227H1544.68L1497.18 110.505H1513.86C1515.54 110.505 1516.92 110.927 1518 111.77C1519.07 112.613 1519.8 113.61 1520.18 114.76L1549.74 189.74C1550.66 192.577 1551.46 195.337 1552.15 198.02C1552.84 200.703 1553.49 203.387 1554.11 206.07C1554.72 203.387 1555.37 200.703 1556.06 198.02C1556.75 195.337 1557.6 192.577 1558.59 189.74L1588.49 114.76C1588.95 113.533 1589.72 112.537 1590.79 111.77C1591.87 110.927 1593.13 110.505 1594.59 110.505H1610.57ZM1650.97 110.505V227H1630.5V110.505H1650.97ZM1655.34 73.935C1655.34 75.9283 1654.91 77.8067 1654.07 79.57C1653.3 81.2567 1652.23 82.79 1650.85 84.17C1649.55 85.4733 1647.98 86.5083 1646.14 87.275C1644.37 88.0417 1642.49 88.425 1640.5 88.425C1638.51 88.425 1636.63 88.0417 1634.87 87.275C1633.18 86.5083 1631.68 85.4733 1630.38 84.17C1629.08 82.79 1628.04 81.2567 1627.28 79.57C1626.51 77.8067 1626.13 75.9283 1626.13 73.935C1626.13 71.9417 1626.51 70.0633 1627.28 68.3C1628.04 66.46 1629.08 64.8883 1630.38 63.585C1631.68 62.205 1633.18 61.1317 1634.87 60.365C1636.63 59.5983 1638.51 59.215 1640.5 59.215C1642.49 59.215 1644.37 59.5983 1646.14 60.365C1647.98 61.1317 1649.55 62.205 1650.85 63.585C1652.23 64.8883 1653.3 66.46 1654.07 68.3C1654.91 70.0633 1655.34 71.9417 1655.34 73.935ZM1765.67 131.205C1765.06 132.048 1764.45 132.7 1763.83 133.16C1763.22 133.62 1762.38 133.85 1761.3 133.85C1760.15 133.85 1758.89 133.39 1757.51 132.47C1756.13 131.473 1754.4 130.4 1752.33 129.25C1750.34 128.1 1747.85 127.065 1744.86 126.145C1741.95 125.148 1738.34 124.65 1734.05 124.65C1728.3 124.65 1723.24 125.685 1718.87 127.755C1714.5 129.748 1710.82 132.662 1707.83 136.495C1704.92 140.328 1702.69 144.967 1701.16 150.41C1699.7 155.853 1698.97 161.948 1698.97 168.695C1698.97 175.748 1699.78 182.035 1701.39 187.555C1703 192.998 1705.26 197.598 1708.17 201.355C1711.16 205.035 1714.73 207.872 1718.87 209.865C1723.09 211.782 1727.8 212.74 1733.01 212.74C1738 212.74 1742.1 212.165 1745.32 211.015C1748.54 209.788 1751.18 208.447 1753.25 206.99C1755.4 205.533 1757.16 204.23 1758.54 203.08C1760 201.853 1761.42 201.24 1762.8 201.24C1764.49 201.24 1765.79 201.892 1766.71 203.195L1772.46 210.67C1769.93 213.813 1767.05 216.497 1763.83 218.72C1760.61 220.943 1757.13 222.822 1753.37 224.355C1749.69 225.812 1745.82 226.885 1741.75 227.575C1737.69 228.265 1733.55 228.61 1729.33 228.61C1722.05 228.61 1715.27 227.268 1708.98 224.585C1702.77 221.902 1697.36 218.03 1692.76 212.97C1688.16 207.833 1684.56 201.547 1681.95 194.11C1679.35 186.673 1678.04 178.202 1678.04 168.695C1678.04 160.032 1679.23 152.02 1681.61 144.66C1684.06 137.3 1687.59 130.975 1692.19 125.685C1696.87 120.318 1702.58 116.14 1709.32 113.15C1716.15 110.16 1723.97 108.665 1732.78 108.665C1740.99 108.665 1748.19 110.007 1754.4 112.69C1760.69 115.297 1766.25 119.015 1771.08 123.845L1765.67 131.205ZM1815.02 126.03C1820 120.74 1825.52 116.523 1831.58 113.38C1837.64 110.237 1844.61 108.665 1852.51 108.665C1858.87 108.665 1864.47 109.738 1869.3 111.885C1874.21 113.955 1878.27 116.945 1881.49 120.855C1884.79 124.688 1887.28 129.327 1888.96 134.77C1890.65 140.213 1891.49 146.232 1891.49 152.825V227H1870.91V152.825C1870.91 144.008 1868.88 137.185 1864.81 132.355C1860.83 127.448 1854.73 124.995 1846.53 124.995C1840.47 124.995 1834.8 126.452 1829.51 129.365C1824.3 132.278 1819.47 136.227 1815.02 141.21V227H1794.43V57.605H1815.02V126.03Z" fill="black"/>
<path d="M711.333 404.375V441.95H755.508V453.8H711.333V500H696.783V392.525H763.008V404.375H711.333ZM811.372 444.575C815.572 444.575 819.272 444.075 822.472 443.075C825.722 442.025 828.422 440.575 830.572 438.725C832.772 436.825 834.422 434.575 835.522 431.975C836.622 429.375 837.172 426.5 837.172 423.35C837.172 416.95 835.072 412.125 830.872 408.875C826.672 405.625 820.372 404 811.972 404H796.072V444.575H811.372ZM861.022 500H848.122C845.472 500 843.522 498.975 842.272 496.925L814.372 458.525C813.522 457.325 812.597 456.475 811.597 455.975C810.647 455.425 809.147 455.15 807.097 455.15H796.072V500H781.597V392.525H811.972C818.772 392.525 824.647 393.225 829.597 394.625C834.547 395.975 838.622 397.95 841.822 400.55C845.072 403.15 847.472 406.3 849.022 410C850.572 413.65 851.347 417.75 851.347 422.3C851.347 426.1 850.747 429.65 849.547 432.95C848.347 436.25 846.597 439.225 844.297 441.875C842.047 444.475 839.272 446.7 835.972 448.55C832.722 450.4 829.022 451.8 824.872 452.75C826.722 453.8 828.322 455.325 829.672 457.325L861.022 500ZM941.94 488.15L941.865 500H875.64V392.525H941.865V404.375H890.19V440.075H932.04V451.475H890.19V488.15H941.94ZM1028.51 488.15L1028.44 500H962.212V392.525H1028.44V404.375H976.762V440.075H1018.61V451.475H976.762V488.15H1028.51ZM1109.76 487.775V500H1048.78V392.525H1063.26V487.775H1109.76ZM1182.91 460.1L1166.04 416.375C1165.54 415.075 1165.01 413.575 1164.46 411.875C1163.91 410.125 1163.39 408.275 1162.89 406.325C1161.84 410.375 1160.76 413.75 1159.66 416.45L1142.79 460.1H1182.91ZM1213.21 500H1201.96C1200.66 500 1199.61 499.675 1198.81 499.025C1198.01 498.375 1197.41 497.55 1197.01 496.55L1186.96 470.6H1138.74L1128.69 496.55C1128.39 497.45 1127.81 498.25 1126.96 498.95C1126.11 499.65 1125.06 500 1123.81 500H1112.56L1155.54 392.525H1170.24L1213.21 500ZM1314.42 392.525V500H1307.15C1306 500 1305.02 499.8 1304.22 499.4C1303.47 499 1302.72 498.325 1301.97 497.375L1239.8 416.375C1239.9 417.625 1239.97 418.85 1240.02 420.05C1240.07 421.25 1240.1 422.375 1240.1 423.425V500H1227.35V392.525H1234.85C1235.5 392.525 1236.05 392.575 1236.5 392.675C1236.95 392.725 1237.35 392.85 1237.7 393.05C1238.05 393.2 1238.4 393.45 1238.75 393.8C1239.1 394.1 1239.47 394.5 1239.87 395L1302.05 475.925C1301.95 474.625 1301.85 473.375 1301.75 472.175C1301.7 470.925 1301.67 469.75 1301.67 468.65V392.525H1314.42ZM1417.35 477.8C1418.15 477.8 1418.85 478.125 1419.45 478.775L1425.22 485C1420.82 490.1 1415.47 494.075 1409.17 496.925C1402.92 499.775 1395.35 501.2 1386.45 501.2C1378.75 501.2 1371.75 499.875 1365.45 497.225C1359.15 494.525 1353.77 490.775 1349.32 485.975C1344.87 481.125 1341.42 475.325 1338.97 468.575C1336.52 461.825 1335.3 454.4 1335.3 446.3C1335.3 438.2 1336.57 430.775 1339.12 424.025C1341.67 417.275 1345.25 411.475 1349.85 406.625C1354.5 401.775 1360.05 398.025 1366.5 395.375C1372.95 392.675 1380.07 391.325 1387.87 391.325C1395.52 391.325 1402.27 392.55 1408.12 395C1413.97 397.45 1419.12 400.775 1423.57 404.975L1418.77 411.65C1418.47 412.15 1418.07 412.575 1417.57 412.925C1417.12 413.225 1416.5 413.375 1415.7 413.375C1414.8 413.375 1413.7 412.9 1412.4 411.95C1411.1 410.95 1409.4 409.85 1407.3 408.65C1405.2 407.45 1402.57 406.375 1399.42 405.425C1396.27 404.425 1392.4 403.925 1387.8 403.925C1382.25 403.925 1377.17 404.9 1372.57 406.85C1367.97 408.75 1364 411.525 1360.65 415.175C1357.35 418.825 1354.77 423.275 1352.92 428.525C1351.07 433.775 1350.15 439.7 1350.15 446.3C1350.15 453 1351.1 458.975 1353 464.225C1354.95 469.475 1357.57 473.925 1360.87 477.575C1364.22 481.175 1368.15 483.925 1372.65 485.825C1377.2 487.725 1382.1 488.675 1387.35 488.675C1390.55 488.675 1393.42 488.5 1395.97 488.15C1398.57 487.75 1400.95 487.15 1403.1 486.35C1405.3 485.55 1407.32 484.55 1409.17 483.35C1411.07 482.1 1412.95 480.625 1414.8 478.925C1415.65 478.175 1416.5 477.8 1417.35 477.8ZM1508.4 488.15L1508.32 500H1442.1V392.525H1508.32V404.375H1456.65V440.075H1498.5V451.475H1456.65V488.15H1508.4Z" fill="black"/>
<line x1="-2.11047e-08" y1="438" x2="660" y2="438" stroke="black" stroke-width="10"/>
<line x1="1538" y1="438" x2="2198" y2="438" stroke="black" stroke-width="10"/>
</svg>
