<?xml version="1.0" standalone="no"?>
<!DOCTYPE svg PUBLIC "-//W3C//DTD SVG 20010904//EN"
 "http://www.w3.org/TR/2001/REC-SVG-20010904/DTD/svg10.dtd">
<svg version="1.0" xmlns="http://www.w3.org/2000/svg"
 width="200.000000pt" height="200.000000pt" viewBox="0 0 200.000000 200.000000"
 preserveAspectRatio="xMidYMid meet">

<g transform="translate(0.000000,200.000000) scale(0.100000,-0.100000)"
fill="#000000" stroke="none">
<path d="M640 1990 c-14 -4 -19 -8 -11 -9 19 -1 -33 -41 -54 -41 -15 0 -16 2
-4 18 7 9 1 6 -15 -8 -15 -14 -39 -46 -52 -72 -13 -27 -27 -48 -30 -48 -3 0
-2 5 1 10 3 6 4 10 2 10 -7 0 -39 -51 -41 -65 -3 -19 -37 -67 -44 -61 -3 3 5
18 19 33 24 28 24 28 1 8 -26 -22 -52 -63 -33 -51 16 10 8 -31 -9 -47 -11 -9
-11 -7 0 7 10 13 11 17 2 12 -7 -4 -25 -34 -40 -67 -23 -48 -28 -72 -27 -127
2 -89 28 -229 53 -278 11 -21 21 -43 23 -49 2 -5 10 -9 18 -7 7 2 17 -2 22 -9
4 -7 18 -13 31 -15 12 -1 26 -3 31 -3 4 -1 7 -12 7 -25 0 -14 4 -27 8 -30 5
-3 6 8 4 25 -4 24 -1 29 16 29 17 0 22 -8 28 -45 3 -25 8 -45 11 -45 2 0 21 9
41 19 31 16 40 27 50 65 13 52 15 96 4 111 -10 14 -67 45 -84 45 -33 1 -38 14
-23 63 21 69 108 187 139 187 7 0 23 11 35 24 28 30 161 72 255 81 38 3 87 11
110 16 31 9 48 8 71 -2 17 -7 35 -11 42 -10 6 1 15 -4 19 -10 5 -9 2 -10 -9
-6 -10 3 -17 2 -17 -3 0 -6 3 -10 8 -10 4 -1 21 -12 37 -26 l30 -26 -32 16
c-30 15 -32 15 -26 -1 4 -11 3 -14 -5 -9 -7 4 -12 3 -12 -3 0 -5 5 -13 11 -17
8 -4 7 -9 -2 -15 -10 -6 -9 -12 6 -30 18 -20 18 -22 3 -16 -12 4 -18 1 -18 -7
0 -8 -6 -16 -13 -19 -29 -11 -17 -63 29 -132 42 -63 47 -75 47 -130 0 -33 -2
-77 -5 -97 -5 -39 -51 -118 -68 -118 -6 0 -10 -7 -10 -17 0 -9 -3 -14 -6 -10
-8 8 -105 -93 -99 -104 3 -4 -1 -14 -9 -21 -7 -8 -17 -24 -20 -36 -4 -13 -16
-22 -27 -22 -13 0 -18 -4 -13 -12 4 -7 3 -8 -5 -4 -6 4 -10 13 -9 19 7 36 -47
80 -110 90 -18 3 -40 11 -48 17 -15 14 -19 40 -5 40 5 0 14 13 20 28 13 30 3
74 -20 88 -9 5 -10 2 -6 -9 4 -10 10 -24 13 -32 9 -22 -22 -30 -63 -17 -28 9
-42 8 -64 -3 -15 -8 -43 -15 -61 -15 l-33 -1 29 -25 30 -26 -24 -44 c-12 -24
-26 -44 -31 -44 -4 0 -10 -8 -12 -17 -4 -15 -5 -15 -6 2 -1 11 -5 26 -10 33
-4 8 -6 -18 -4 -59 2 -40 7 -77 12 -83 4 -6 14 -40 21 -76 16 -79 52 -155 82
-172 31 -16 45 -19 104 -21 l52 -2 6 -72 c4 -45 3 -80 -4 -92 -15 -29 -12
-105 7 -164 9 -29 17 -54 19 -56 2 -2 20 15 41 37 32 33 54 44 139 71 56 17
112 40 125 52 13 11 17 18 9 14 -10 -4 -9 -2 3 8 10 9 17 28 17 51 0 21 7 44
16 53 8 9 13 21 10 28 -2 7 11 57 30 111 19 55 38 107 41 117 3 9 10 17 15 17
5 0 7 19 5 41 -4 42 36 169 53 169 4 0 11 -17 14 -37 3 -21 9 -58 13 -83 l7
-45 8 40 c10 47 15 80 17 118 0 15 14 41 31 59 17 17 30 38 30 47 0 10 5 22
10 27 20 20 41 152 45 288 3 83 9 144 16 153 34 40 25 159 -15 198 -9 9 -16
26 -16 38 -1 25 -59 140 -60 118 0 -12 -3 -11 -17 1 -10 9 -29 21 -42 28 -19
10 -22 10 -15 -2 6 -10 5 -11 -8 -1 -8 7 -18 10 -21 6 -4 -3 -7 -1 -7 5 0 7
-6 12 -14 12 -7 0 -21 11 -30 25 -9 14 -21 23 -26 20 -6 -4 -10 -2 -10 4 0 18
-61 80 -74 75 -7 -3 -21 4 -31 16 -10 11 -23 20 -28 20 -6 0 0 -12 14 -27 20
-24 19 -23 -11 3 -38 35 -89 57 -74 33 6 -11 3 -10 -12 1 -30 22 -30 24 -9 17
20 -7 20 -7 1 8 -23 18 -40 20 -30 3 5 -7 3 -8 -7 -2 -8 5 -33 9 -57 10 -23 1
-45 4 -49 8 -3 3 -15 6 -26 6 -17 0 -18 -2 -6 -17 13 -16 13 -16 -11 0 -30 21
-170 25 -170 5 0 -9 -3 -9 -12 0 -13 13 -22 14 -58 2z m-90 -74 c0 -2 -8 -10
-17 -17 -16 -13 -17 -12 -4 4 13 16 21 21 21 13z m183 -69 c-3 -5 -11 3 -18
17 -8 14 -17 32 -20 38 -4 7 4 0 18 -17 14 -16 23 -34 20 -38z m537 -8 c0 -4
-13 5 -29 20 -16 14 -27 30 -24 35 5 8 52 -41 53 -55z m-461 -33 c-3 -3 -11 5
-18 17 -13 21 -12 21 5 5 10 -10 16 -20 13 -22z m131 -10 c0 -12 -5 -7 -19 24
-11 24 -11 24 3 6 9 -11 16 -24 16 -30z m-160 -1 c0 -5 -5 -3 -10 5 -5 8 -10
20 -10 25 0 6 5 3 10 -5 5 -8 10 -19 10 -25z m-130 -50 c0 -5 -5 -3 -10 5 -5
8 -10 20 -10 25 0 6 5 3 10 -5 5 -8 10 -19 10 -25z m754 -13 c3 -5 -8 -6 -25
-4 -16 2 -29 6 -29 8 0 8 49 4 54 -4z m-54 -78 c0 -2 -9 0 -20 6 -11 6 -20 13
-20 16 0 2 9 0 20 -6 11 -6 20 -13 20 -16z m-984 -46 c-8 -18 -19 -66 -26
-106 -7 -40 -14 -71 -16 -69 -8 8 16 149 31 178 21 39 27 37 11 -3z m1204
-143 c0 -14 -2 -25 -4 -25 -2 0 -6 11 -8 25 -3 14 -1 25 3 25 5 0 9 -11 9 -25z
m-1153 -57 c-3 -7 -5 -2 -5 12 0 14 2 19 5 13 2 -7 2 -19 0 -25z m-67 -88 c0
-13 -1 -13 -10 0 -5 8 -10 22 -10 30 0 13 1 13 10 0 5 -8 10 -22 10 -30z m31
-65 c6 16 8 17 8 3 1 -20 -17 -34 -29 -22 -5 5 -11 23 -14 39 -6 29 -6 29 10
-5 15 -32 17 -33 25 -15z m1131 -56 c32 -56 13 -135 -51 -217 -30 -39 -93 -74
-116 -66 -22 9 -15 49 8 48 22 -2 22 12 0 21 -16 6 -15 8 5 16 12 4 22 15 22
24 0 8 5 15 10 15 6 0 10 7 10 15 0 13 4 14 20 5 34 -18 39 18 7 46 -32 28
-33 30 -7 37 11 3 20 13 20 22 0 34 29 -12 38 -61 l10 -49 1 46 c0 25 -4 50
-11 57 -6 6 -8 15 -4 19 4 5 14 -1 22 -11 17 -24 18 -7 2 29 -8 18 -19 25 -39
25 -15 0 -30 -4 -34 -9 -12 -20 -85 -72 -85 -61 0 13 44 56 84 81 37 22 64 13
88 -32z m-1122 5 c0 -8 -5 -12 -10 -9 -6 4 -8 11 -5 16 9 14 15 11 15 -7z
m974 -116 c7 -20 4 -32 -14 -56 -13 -18 -25 -30 -28 -28 -2 3 0 30 3 61 8 59
23 68 39 23z m-631 -265 c-7 -2 -21 -2 -30 0 -10 3 -4 5 12 5 17 0 24 -2 18
-5z m57 -67 c-14 -7 -29 -10 -34 -8 -11 6 20 20 44 21 8 0 4 -5 -10 -13z m149
-16 c36 -27 41 -35 37 -60 -4 -30 -49 -84 -60 -72 -4 3 -11 0 -16 -7 -12 -20
-72 -16 -87 5 -20 27 -16 41 13 48 43 11 56 31 50 76 -7 50 5 51 63 10z m-203
-116 c-3 -9 -6 -20 -6 -25 0 -10 -35 -7 -46 4 -14 13 7 37 32 37 20 0 25 -4
20 -16z"/>
<path d="M903 1328 c-10 -4 -39 -7 -65 -7 -38 -1 -54 -7 -79 -29 l-32 -29 18
-46 c28 -75 42 -82 147 -79 89 2 126 12 141 38 4 7 22 17 40 23 18 6 40 24 50
40 17 29 17 30 -9 54 -43 40 -152 58 -211 35z m2 -128 c3 -5 1 -10 -4 -10 -6
0 -11 5 -11 10 0 6 2 10 4 10 3 0 8 -4 11 -10z"/>
</g>
</svg>
