<svg width="2218" height="939" viewBox="0 0 2218 939" fill="none" xmlns="http://www.w3.org/2000/svg">
<rect x="10" y="10" width="2198" height="919" fill="white"/>
<rect x="10" y="10" width="2198" height="919" stroke="black" stroke-width="20"/>
<path d="M344.384 444H322.074V279.205H344.384V444ZM401.07 274.605V444H380.6V274.605H401.07ZM534.776 327.505L469.801 478.385C469.111 479.918 468.229 481.145 467.156 482.065C466.159 482.985 464.587 483.445 462.441 483.445H447.261L468.536 437.215L420.466 327.505H438.176C439.939 327.505 441.319 327.965 442.316 328.885C443.389 329.728 444.117 330.687 444.501 331.76L475.666 405.13C476.892 408.35 477.927 411.723 478.771 415.25C479.844 411.647 480.994 408.235 482.221 405.015L512.466 331.76C512.926 330.533 513.692 329.537 514.766 328.77C515.916 327.927 517.181 327.505 518.561 327.505H534.776ZM613.748 391.56C604.318 391.867 596.268 392.633 589.598 393.86C583.005 395.01 577.6 396.543 573.383 398.46C569.243 400.377 566.215 402.638 564.298 405.245C562.458 407.852 561.538 410.765 561.538 413.985C561.538 417.052 562.037 419.697 563.033 421.92C564.03 424.143 565.372 425.983 567.058 427.44C568.822 428.82 570.853 429.855 573.153 430.545C575.53 431.158 578.06 431.465 580.743 431.465C584.347 431.465 587.643 431.12 590.633 430.43C593.623 429.663 596.422 428.59 599.028 427.21C601.712 425.83 604.242 424.182 606.618 422.265C609.072 420.348 611.448 418.163 613.748 415.71V391.56ZM547.623 343.95C554.063 337.74 561.002 333.102 568.438 330.035C575.875 326.968 584.117 325.435 593.163 325.435C599.68 325.435 605.468 326.508 610.528 328.655C615.588 330.802 619.843 333.792 623.293 337.625C626.743 341.458 629.35 346.097 631.113 351.54C632.877 356.983 633.758 362.963 633.758 369.48V444H624.673C622.68 444 621.147 443.693 620.073 443.08C619 442.39 618.157 441.087 617.543 439.17L615.243 428.13C612.177 430.967 609.187 433.497 606.273 435.72C603.36 437.867 600.293 439.707 597.073 441.24C593.853 442.697 590.403 443.808 586.723 444.575C583.12 445.418 579.095 445.84 574.648 445.84C570.125 445.84 565.87 445.227 561.883 444C557.897 442.697 554.408 440.78 551.418 438.25C548.505 435.72 546.167 432.538 544.403 428.705C542.717 424.795 541.873 420.195 541.873 414.905C541.873 410.305 543.138 405.897 545.668 401.68C548.198 397.387 552.3 393.592 557.973 390.295C563.647 386.998 571.045 384.315 580.168 382.245C589.292 380.098 600.485 378.872 613.748 378.565V369.48C613.748 360.433 611.793 353.61 607.883 349.01C603.973 344.333 598.262 341.995 590.748 341.995C585.688 341.995 581.433 342.647 577.983 343.95C574.61 345.177 571.658 346.595 569.128 348.205C566.675 349.738 564.528 351.157 562.688 352.46C560.925 353.687 559.162 354.3 557.398 354.3C556.018 354.3 554.83 353.955 553.833 353.265C552.837 352.498 551.993 351.578 551.303 350.505L547.623 343.95ZM812.912 304.965C812.222 306.115 811.456 306.997 810.612 307.61C809.846 308.147 808.887 308.415 807.737 308.415C806.434 308.415 804.901 307.763 803.137 306.46C801.374 305.157 799.151 303.738 796.467 302.205C793.861 300.595 790.679 299.138 786.922 297.835C783.242 296.532 778.757 295.88 773.467 295.88C768.484 295.88 764.076 296.57 760.242 297.95C756.486 299.253 753.304 301.055 750.697 303.355C748.167 305.655 746.251 308.377 744.947 311.52C743.644 314.587 742.992 317.922 742.992 321.525C742.992 326.125 744.104 329.958 746.327 333.025C748.627 336.015 751.617 338.583 755.297 340.73C759.054 342.877 763.271 344.755 767.947 346.365C772.701 347.898 777.531 349.508 782.437 351.195C787.421 352.882 792.251 354.798 796.927 356.945C801.681 359.015 805.897 361.66 809.577 364.88C813.334 368.1 816.324 372.048 818.547 376.725C820.847 381.402 821.997 387.152 821.997 393.975C821.997 401.182 820.771 407.967 818.317 414.33C815.864 420.617 812.261 426.098 807.507 430.775C802.831 435.452 797.042 439.132 790.142 441.815C783.319 444.498 775.537 445.84 766.797 445.84C756.064 445.84 746.327 443.923 737.587 440.09C728.847 436.18 721.372 430.928 715.162 424.335L721.602 413.755C722.216 412.912 722.944 412.222 723.787 411.685C724.707 411.072 725.704 410.765 726.777 410.765C727.774 410.765 728.886 411.187 730.112 412.03C731.416 412.797 732.872 413.793 734.482 415.02C736.092 416.247 737.932 417.588 740.002 419.045C742.072 420.502 744.411 421.843 747.017 423.07C749.701 424.297 752.729 425.332 756.102 426.175C759.476 426.942 763.271 427.325 767.487 427.325C772.777 427.325 777.492 426.597 781.632 425.14C785.772 423.683 789.261 421.652 792.097 419.045C795.011 416.362 797.234 413.18 798.767 409.5C800.301 405.82 801.067 401.718 801.067 397.195C801.067 392.212 799.917 388.148 797.617 385.005C795.394 381.785 792.442 379.102 788.762 376.955C785.082 374.808 780.866 373.007 776.112 371.55C771.359 370.017 766.529 368.483 761.622 366.95C756.716 365.34 751.886 363.5 747.132 361.43C742.379 359.36 738.162 356.677 734.482 353.38C730.802 350.083 727.812 345.982 725.512 341.075C723.289 336.092 722.177 329.958 722.177 322.675C722.177 316.848 723.289 311.213 725.512 305.77C727.812 300.327 731.109 295.497 735.402 291.28C739.772 287.063 745.101 283.69 751.387 281.16C757.751 278.63 765.034 277.365 773.237 277.365C782.437 277.365 790.794 278.822 798.307 281.735C805.897 284.648 812.567 288.865 818.317 294.385L812.912 304.965ZM867.234 343.03C872.217 337.74 877.737 333.523 883.794 330.38C889.85 327.237 896.827 325.665 904.724 325.665C911.087 325.665 916.684 326.738 921.514 328.885C926.42 330.955 930.484 333.945 933.704 337.855C937 341.688 939.492 346.327 941.179 351.77C942.865 357.213 943.709 363.232 943.709 369.825V444H923.124V369.825C923.124 361.008 921.092 354.185 917.029 349.355C913.042 344.448 906.947 341.995 898.744 341.995C892.687 341.995 887.014 343.452 881.724 346.365C876.51 349.278 871.68 353.227 867.234 358.21V444H846.649V274.605H867.234V343.03ZM1052.87 373.045C1052.87 368.292 1052.18 363.96 1050.8 360.05C1049.5 356.063 1047.54 352.652 1044.94 349.815C1042.41 346.902 1039.3 344.678 1035.62 343.145C1031.94 341.535 1027.76 340.73 1023.09 340.73C1013.27 340.73 1005.49 343.605 999.741 349.355C994.067 355.028 990.541 362.925 989.161 373.045H1052.87ZM1069.43 427.67C1066.9 430.737 1063.87 433.42 1060.35 435.72C1056.82 437.943 1053.02 439.783 1048.96 441.24C1044.97 442.697 1040.83 443.77 1036.54 444.46C1032.25 445.227 1027.99 445.61 1023.78 445.61C1015.73 445.61 1008.29 444.268 1001.47 441.585C994.719 438.825 988.854 434.838 983.871 429.625C978.964 424.335 975.131 417.818 972.371 410.075C969.611 402.332 968.231 393.438 968.231 383.395C968.231 375.268 969.457 367.678 971.911 360.625C974.441 353.572 978.044 347.477 982.721 342.34C987.397 337.127 993.109 333.063 999.856 330.15C1006.6 327.16 1014.19 325.665 1022.63 325.665C1029.6 325.665 1036.04 326.853 1041.95 329.23C1047.93 331.53 1053.06 334.903 1057.36 339.35C1061.73 343.72 1065.14 349.163 1067.59 355.68C1070.04 362.12 1071.27 369.48 1071.27 377.76C1071.27 380.98 1070.93 383.127 1070.24 384.2C1069.55 385.273 1068.24 385.81 1066.33 385.81H988.471C988.701 393.17 989.697 399.572 991.461 405.015C993.301 410.458 995.831 415.02 999.051 418.7C1002.27 422.303 1006.1 425.025 1010.55 426.865C1015 428.628 1019.98 429.51 1025.5 429.51C1030.64 429.51 1035.05 428.935 1038.73 427.785C1042.48 426.558 1045.7 425.255 1048.39 423.875C1051.07 422.495 1053.29 421.23 1055.06 420.08C1056.9 418.853 1058.47 418.24 1059.77 418.24C1061.46 418.24 1062.76 418.892 1063.68 420.195L1069.43 427.67ZM1117 415.94C1120.76 421 1124.86 424.565 1129.3 426.635C1133.75 428.705 1138.73 429.74 1144.25 429.74C1155.14 429.74 1163.5 425.868 1169.32 418.125C1175.15 410.382 1178.06 399.342 1178.06 385.005C1178.06 377.415 1177.37 370.898 1175.99 365.455C1174.69 360.012 1172.77 355.565 1170.24 352.115C1167.71 348.588 1164.61 346.02 1160.93 344.41C1157.25 342.8 1153.07 341.995 1148.39 341.995C1141.72 341.995 1135.86 343.528 1130.8 346.595C1125.82 349.662 1121.22 353.993 1117 359.59V415.94ZM1115.96 345.56C1120.87 339.503 1126.54 334.635 1132.98 330.955C1139.42 327.275 1146.78 325.435 1155.06 325.435C1161.81 325.435 1167.91 326.738 1173.35 329.345C1178.79 331.875 1183.43 335.67 1187.26 340.73C1191.1 345.713 1194.05 351.923 1196.12 359.36C1198.19 366.797 1199.22 375.345 1199.22 385.005C1199.22 393.592 1198.07 401.603 1195.77 409.04C1193.47 416.4 1190.14 422.802 1185.77 428.245C1181.48 433.612 1176.19 437.867 1169.9 441.01C1163.69 444.077 1156.67 445.61 1148.85 445.61C1141.72 445.61 1135.59 444.422 1130.45 442.045C1125.39 439.592 1120.91 436.218 1117 431.925V483.445H1096.41V327.505H1108.72C1111.63 327.505 1113.43 328.923 1114.12 331.76L1115.96 345.56ZM1303.31 373.045C1303.31 368.292 1302.62 363.96 1301.24 360.05C1299.94 356.063 1297.98 352.652 1295.38 349.815C1292.85 346.902 1289.74 344.678 1286.06 343.145C1282.38 341.535 1278.2 340.73 1273.53 340.73C1263.71 340.73 1255.93 343.605 1250.18 349.355C1244.51 355.028 1240.98 362.925 1239.6 373.045H1303.31ZM1319.87 427.67C1317.34 430.737 1314.31 433.42 1310.79 435.72C1307.26 437.943 1303.46 439.783 1299.4 441.24C1295.41 442.697 1291.27 443.77 1286.98 444.46C1282.69 445.227 1278.43 445.61 1274.22 445.61C1266.17 445.61 1258.73 444.268 1251.91 441.585C1245.16 438.825 1239.29 434.838 1234.31 429.625C1229.4 424.335 1225.57 417.818 1222.81 410.075C1220.05 402.332 1218.67 393.438 1218.67 383.395C1218.67 375.268 1219.9 367.678 1222.35 360.625C1224.88 353.572 1228.48 347.477 1233.16 342.34C1237.84 337.127 1243.55 333.063 1250.3 330.15C1257.04 327.16 1264.63 325.665 1273.07 325.665C1280.04 325.665 1286.48 326.853 1292.39 329.23C1298.37 331.53 1303.5 334.903 1307.8 339.35C1312.17 343.72 1315.58 349.163 1318.03 355.68C1320.48 362.12 1321.71 369.48 1321.71 377.76C1321.71 380.98 1321.37 383.127 1320.68 384.2C1319.99 385.273 1318.68 385.81 1316.77 385.81H1238.91C1239.14 393.17 1240.14 399.572 1241.9 405.015C1243.74 410.458 1246.27 415.02 1249.49 418.7C1252.71 422.303 1256.54 425.025 1260.99 426.865C1265.44 428.628 1270.42 429.51 1275.94 429.51C1281.08 429.51 1285.49 428.935 1289.17 427.785C1292.92 426.558 1296.14 425.255 1298.83 423.875C1301.51 422.495 1303.73 421.23 1305.5 420.08C1307.34 418.853 1308.91 418.24 1310.21 418.24C1311.9 418.24 1313.2 418.892 1314.12 420.195L1319.87 427.67ZM1368.01 274.605V444H1347.54V274.605H1368.01ZM1479.18 373.045C1479.18 368.292 1478.49 363.96 1477.11 360.05C1475.81 356.063 1473.85 352.652 1471.24 349.815C1468.71 346.902 1465.61 344.678 1461.93 343.145C1458.25 341.535 1454.07 340.73 1449.39 340.73C1439.58 340.73 1431.8 343.605 1426.05 349.355C1420.38 355.028 1416.85 362.925 1415.47 373.045H1479.18ZM1495.74 427.67C1493.21 430.737 1490.18 433.42 1486.65 435.72C1483.13 437.943 1479.33 439.783 1475.27 441.24C1471.28 442.697 1467.14 443.77 1462.85 444.46C1458.56 445.227 1454.3 445.61 1450.08 445.61C1442.03 445.61 1434.6 444.268 1427.77 441.585C1421.03 438.825 1415.16 434.838 1410.18 429.625C1405.27 424.335 1401.44 417.818 1398.68 410.075C1395.92 402.332 1394.54 393.438 1394.54 383.395C1394.54 375.268 1395.77 367.678 1398.22 360.625C1400.75 353.572 1404.35 347.477 1409.03 342.34C1413.71 337.127 1419.42 333.063 1426.16 330.15C1432.91 327.16 1440.5 325.665 1448.93 325.665C1455.91 325.665 1462.35 326.853 1468.25 329.23C1474.23 331.53 1479.37 334.903 1483.66 339.35C1488.03 343.72 1491.45 349.163 1493.9 355.68C1496.35 362.12 1497.58 369.48 1497.58 377.76C1497.58 380.98 1497.23 383.127 1496.54 384.2C1495.85 385.273 1494.55 385.81 1492.63 385.81H1414.78C1415.01 393.17 1416.01 399.572 1417.77 405.015C1419.61 410.458 1422.14 415.02 1425.36 418.7C1428.58 422.303 1432.41 425.025 1436.86 426.865C1441.31 428.628 1446.29 429.51 1451.81 429.51C1456.95 429.51 1461.35 428.935 1465.03 427.785C1468.79 426.558 1472.01 425.255 1474.69 423.875C1477.38 422.495 1479.6 421.23 1481.36 420.08C1483.2 418.853 1484.78 418.24 1486.08 418.24C1487.77 418.24 1489.07 418.892 1489.99 420.195L1495.74 427.67ZM1620.07 327.505L1572.58 444H1554.18L1506.68 327.505H1523.36C1525.04 327.505 1526.42 327.927 1527.5 328.77C1528.57 329.613 1529.3 330.61 1529.68 331.76L1559.24 406.74C1560.16 409.577 1560.96 412.337 1561.65 415.02C1562.34 417.703 1562.99 420.387 1563.61 423.07C1564.22 420.387 1564.87 417.703 1565.56 415.02C1566.25 412.337 1567.1 409.577 1568.09 406.74L1597.99 331.76C1598.45 330.533 1599.22 329.537 1600.29 328.77C1601.37 327.927 1602.63 327.505 1604.09 327.505H1620.07ZM1660.47 327.505V444H1640V327.505H1660.47ZM1664.84 290.935C1664.84 292.928 1664.41 294.807 1663.57 296.57C1662.8 298.257 1661.73 299.79 1660.35 301.17C1659.05 302.473 1657.48 303.508 1655.64 304.275C1653.87 305.042 1651.99 305.425 1650 305.425C1648.01 305.425 1646.13 305.042 1644.37 304.275C1642.68 303.508 1641.18 302.473 1639.88 301.17C1638.58 299.79 1637.54 298.257 1636.78 296.57C1636.01 294.807 1635.63 292.928 1635.63 290.935C1635.63 288.942 1636.01 287.063 1636.78 285.3C1637.54 283.46 1638.58 281.888 1639.88 280.585C1641.18 279.205 1642.68 278.132 1644.37 277.365C1646.13 276.598 1648.01 276.215 1650 276.215C1651.99 276.215 1653.87 276.598 1655.64 277.365C1657.48 278.132 1659.05 279.205 1660.35 280.585C1661.73 281.888 1662.8 283.46 1663.57 285.3C1664.41 287.063 1664.84 288.942 1664.84 290.935ZM1775.17 348.205C1774.56 349.048 1773.95 349.7 1773.33 350.16C1772.72 350.62 1771.88 350.85 1770.8 350.85C1769.65 350.85 1768.39 350.39 1767.01 349.47C1765.63 348.473 1763.9 347.4 1761.83 346.25C1759.84 345.1 1757.35 344.065 1754.36 343.145C1751.45 342.148 1747.84 341.65 1743.55 341.65C1737.8 341.65 1732.74 342.685 1728.37 344.755C1724 346.748 1720.32 349.662 1717.33 353.495C1714.42 357.328 1712.19 361.967 1710.66 367.41C1709.2 372.853 1708.47 378.948 1708.47 385.695C1708.47 392.748 1709.28 399.035 1710.89 404.555C1712.5 409.998 1714.76 414.598 1717.67 418.355C1720.66 422.035 1724.23 424.872 1728.37 426.865C1732.59 428.782 1737.3 429.74 1742.51 429.74C1747.5 429.74 1751.6 429.165 1754.82 428.015C1758.04 426.788 1760.68 425.447 1762.75 423.99C1764.9 422.533 1766.66 421.23 1768.04 420.08C1769.5 418.853 1770.92 418.24 1772.3 418.24C1773.99 418.24 1775.29 418.892 1776.21 420.195L1781.96 427.67C1779.43 430.813 1776.55 433.497 1773.33 435.72C1770.11 437.943 1766.63 439.822 1762.87 441.355C1759.19 442.812 1755.32 443.885 1751.25 444.575C1747.19 445.265 1743.05 445.61 1738.83 445.61C1731.55 445.61 1724.77 444.268 1718.48 441.585C1712.27 438.902 1706.86 435.03 1702.26 429.97C1697.66 424.833 1694.06 418.547 1691.45 411.11C1688.85 403.673 1687.54 395.202 1687.54 385.695C1687.54 377.032 1688.73 369.02 1691.11 361.66C1693.56 354.3 1697.09 347.975 1701.69 342.685C1706.37 337.318 1712.08 333.14 1718.82 330.15C1725.65 327.16 1733.47 325.665 1742.28 325.665C1750.49 325.665 1757.69 327.007 1763.9 329.69C1770.19 332.297 1775.75 336.015 1780.58 340.845L1775.17 348.205ZM1824.52 343.03C1829.5 337.74 1835.02 333.523 1841.08 330.38C1847.14 327.237 1854.11 325.665 1862.01 325.665C1868.37 325.665 1873.97 326.738 1878.8 328.885C1883.71 330.955 1887.77 333.945 1890.99 337.855C1894.29 341.688 1896.78 346.327 1898.46 351.77C1900.15 357.213 1900.99 363.232 1900.99 369.825V444H1880.41V369.825C1880.41 361.008 1878.38 354.185 1874.31 349.355C1870.33 344.448 1864.23 341.995 1856.03 341.995C1849.97 341.995 1844.3 343.452 1839.01 346.365C1833.8 349.278 1828.97 353.227 1824.52 358.21V444H1803.93V274.605H1824.52V343.03ZM667.597 573.375V630.99H735.332V649.16H667.597V720H645.287V555.205H746.832V573.375H667.597ZM780.058 626.85C783.738 618.877 788.262 612.667 793.628 608.22C798.995 603.697 805.55 601.435 813.293 601.435C815.747 601.435 818.085 601.703 820.308 602.24C822.608 602.777 824.64 603.62 826.403 604.77L824.908 620.065C824.448 621.982 823.298 622.94 821.458 622.94C820.385 622.94 818.813 622.71 816.743 622.25C814.673 621.79 812.335 621.56 809.728 621.56C806.048 621.56 802.752 622.097 799.838 623.17C797.002 624.243 794.433 625.853 792.133 628C789.91 630.07 787.878 632.677 786.038 635.82C784.275 638.887 782.665 642.413 781.208 646.4V720H760.623V603.505H772.353C774.577 603.505 776.11 603.927 776.953 604.77C777.797 605.613 778.372 607.07 778.678 609.14L780.058 626.85ZM917.656 649.045C917.656 644.292 916.966 639.96 915.586 636.05C914.282 632.063 912.327 628.652 909.721 625.815C907.191 622.902 904.086 620.678 900.406 619.145C896.726 617.535 892.547 616.73 887.871 616.73C878.057 616.73 870.276 619.605 864.526 625.355C858.852 631.028 855.326 638.925 853.946 649.045H917.656ZM934.216 703.67C931.686 706.737 928.657 709.42 925.131 711.72C921.604 713.943 917.809 715.783 913.746 717.24C909.759 718.697 905.619 719.77 901.326 720.46C897.032 721.227 892.777 721.61 888.561 721.61C880.511 721.61 873.074 720.268 866.251 717.585C859.504 714.825 853.639 710.838 848.656 705.625C843.749 700.335 839.916 693.818 837.156 686.075C834.396 678.332 833.016 669.438 833.016 659.395C833.016 651.268 834.242 643.678 836.696 636.625C839.226 629.572 842.829 623.477 847.506 618.34C852.182 613.127 857.894 609.063 864.641 606.15C871.387 603.16 878.977 601.665 887.411 601.665C894.387 601.665 900.827 602.853 906.731 605.23C912.711 607.53 917.847 610.903 922.141 615.35C926.511 619.72 929.922 625.163 932.376 631.68C934.829 638.12 936.056 645.48 936.056 653.76C936.056 656.98 935.711 659.127 935.021 660.2C934.331 661.273 933.027 661.81 931.111 661.81H853.256C853.486 669.17 854.482 675.572 856.246 681.015C858.086 686.458 860.616 691.02 863.836 694.7C867.056 698.303 870.889 701.025 875.336 702.865C879.782 704.628 884.766 705.51 890.286 705.51C895.422 705.51 899.831 704.935 903.511 703.785C907.267 702.558 910.487 701.255 913.171 699.875C915.854 698.495 918.077 697.23 919.841 696.08C921.681 694.853 923.252 694.24 924.556 694.24C926.242 694.24 927.546 694.892 928.466 696.195L934.216 703.67ZM1039.17 649.045C1039.17 644.292 1038.48 639.96 1037.1 636.05C1035.8 632.063 1033.84 628.652 1031.23 625.815C1028.7 622.902 1025.6 620.678 1021.92 619.145C1018.24 617.535 1014.06 616.73 1009.38 616.73C999.571 616.73 991.789 619.605 986.039 625.355C980.366 631.028 976.839 638.925 975.459 649.045H1039.17ZM1055.73 703.67C1053.2 706.737 1050.17 709.42 1046.64 711.72C1043.12 713.943 1039.32 715.783 1035.26 717.24C1031.27 718.697 1027.13 719.77 1022.84 720.46C1018.55 721.227 1014.29 721.61 1010.07 721.61C1002.02 721.61 994.588 720.268 987.764 717.585C981.018 714.825 975.153 710.838 970.169 705.625C965.263 700.335 961.429 693.818 958.669 686.075C955.909 678.332 954.529 669.438 954.529 659.395C954.529 651.268 955.756 643.678 958.209 636.625C960.739 629.572 964.343 623.477 969.019 618.34C973.696 613.127 979.408 609.063 986.154 606.15C992.901 603.16 1000.49 601.665 1008.92 601.665C1015.9 601.665 1022.34 602.853 1028.24 605.23C1034.22 607.53 1039.36 610.903 1043.65 615.35C1048.02 619.72 1051.44 625.163 1053.89 631.68C1056.34 638.12 1057.57 645.48 1057.57 653.76C1057.57 656.98 1057.22 659.127 1056.53 660.2C1055.84 661.273 1054.54 661.81 1052.62 661.81H974.769C974.999 669.17 975.996 675.572 977.759 681.015C979.599 686.458 982.129 691.02 985.349 694.7C988.569 698.303 992.403 701.025 996.849 702.865C1001.3 704.628 1006.28 705.51 1011.8 705.51C1016.94 705.51 1021.34 704.935 1025.02 703.785C1028.78 702.558 1032 701.255 1034.68 699.875C1037.37 698.495 1039.59 697.23 1041.35 696.08C1043.19 694.853 1044.77 694.24 1046.07 694.24C1047.76 694.24 1049.06 694.892 1049.98 696.195L1055.73 703.67ZM1103.87 550.605V720H1083.4V550.605H1103.87ZM1200.2 667.56C1190.77 667.867 1182.72 668.633 1176.05 669.86C1169.46 671.01 1164.06 672.543 1159.84 674.46C1155.7 676.377 1152.67 678.638 1150.75 681.245C1148.91 683.852 1147.99 686.765 1147.99 689.985C1147.99 693.052 1148.49 695.697 1149.49 697.92C1150.49 700.143 1151.83 701.983 1153.51 703.44C1155.28 704.82 1157.31 705.855 1159.61 706.545C1161.99 707.158 1164.52 707.465 1167.2 707.465C1170.8 707.465 1174.1 707.12 1177.09 706.43C1180.08 705.663 1182.88 704.59 1185.48 703.21C1188.17 701.83 1190.7 700.182 1193.07 698.265C1195.53 696.348 1197.9 694.163 1200.2 691.71V667.56ZM1134.08 619.95C1140.52 613.74 1147.46 609.102 1154.89 606.035C1162.33 602.968 1170.57 601.435 1179.62 601.435C1186.14 601.435 1191.92 602.508 1196.98 604.655C1202.04 606.802 1206.3 609.792 1209.75 613.625C1213.2 617.458 1215.81 622.097 1217.57 627.54C1219.33 632.983 1220.21 638.963 1220.21 645.48V720H1211.13C1209.14 720 1207.6 719.693 1206.53 719.08C1205.46 718.39 1204.61 717.087 1204 715.17L1201.7 704.13C1198.63 706.967 1195.64 709.497 1192.73 711.72C1189.82 713.867 1186.75 715.707 1183.53 717.24C1180.31 718.697 1176.86 719.808 1173.18 720.575C1169.58 721.418 1165.55 721.84 1161.1 721.84C1156.58 721.84 1152.33 721.227 1148.34 720C1144.35 718.697 1140.86 716.78 1137.87 714.25C1134.96 711.72 1132.62 708.538 1130.86 704.705C1129.17 700.795 1128.33 696.195 1128.33 690.905C1128.33 686.305 1129.59 681.897 1132.12 677.68C1134.65 673.387 1138.76 669.592 1144.43 666.295C1150.1 662.998 1157.5 660.315 1166.62 658.245C1175.75 656.098 1186.94 654.872 1200.2 654.565V645.48C1200.2 636.433 1198.25 629.61 1194.34 625.01C1190.43 620.333 1184.72 617.995 1177.2 617.995C1172.14 617.995 1167.89 618.647 1164.44 619.95C1161.07 621.177 1158.11 622.595 1155.58 624.205C1153.13 625.738 1150.98 627.157 1149.14 628.46C1147.38 629.687 1145.62 630.3 1143.85 630.3C1142.47 630.3 1141.29 629.955 1140.29 629.265C1139.29 628.498 1138.45 627.578 1137.76 626.505L1134.08 619.95ZM1270.71 620.41C1273.24 617.573 1275.93 615.005 1278.76 612.705C1281.6 610.405 1284.59 608.45 1287.73 606.84C1290.95 605.153 1294.33 603.888 1297.85 603.045C1301.46 602.125 1305.33 601.665 1309.47 601.665C1315.83 601.665 1321.43 602.738 1326.26 604.885C1331.17 606.955 1335.23 609.945 1338.45 613.855C1341.75 617.688 1344.24 622.327 1345.92 627.77C1347.61 633.213 1348.45 639.232 1348.45 645.825V720H1327.87V645.825C1327.87 637.008 1325.84 630.185 1321.77 625.355C1317.79 620.448 1311.69 617.995 1303.49 617.995C1297.43 617.995 1291.76 619.452 1286.47 622.365C1281.26 625.278 1276.43 629.227 1271.98 634.21V720H1251.39V603.505H1263.7C1266.61 603.505 1268.41 604.923 1269.1 607.76L1270.71 620.41ZM1460.72 624.205C1460.11 625.048 1459.49 625.7 1458.88 626.16C1458.27 626.62 1457.42 626.85 1456.35 626.85C1455.2 626.85 1453.94 626.39 1452.56 625.47C1451.18 624.473 1449.45 623.4 1447.38 622.25C1445.39 621.1 1442.9 620.065 1439.91 619.145C1436.99 618.148 1433.39 617.65 1429.1 617.65C1423.35 617.65 1418.29 618.685 1413.92 620.755C1409.55 622.748 1405.87 625.662 1402.88 629.495C1399.96 633.328 1397.74 637.967 1396.21 643.41C1394.75 648.853 1394.02 654.948 1394.02 661.695C1394.02 668.748 1394.83 675.035 1396.44 680.555C1398.05 685.998 1400.31 690.598 1403.22 694.355C1406.21 698.035 1409.78 700.872 1413.92 702.865C1418.13 704.782 1422.85 705.74 1428.06 705.74C1433.04 705.74 1437.15 705.165 1440.37 704.015C1443.59 702.788 1446.23 701.447 1448.3 699.99C1450.45 698.533 1452.21 697.23 1453.59 696.08C1455.05 694.853 1456.47 694.24 1457.85 694.24C1459.53 694.24 1460.84 694.892 1461.76 696.195L1467.51 703.67C1464.98 706.813 1462.1 709.497 1458.88 711.72C1455.66 713.943 1452.17 715.822 1448.42 717.355C1444.74 718.812 1440.86 719.885 1436.8 720.575C1432.74 721.265 1428.6 721.61 1424.38 721.61C1417.1 721.61 1410.31 720.268 1404.03 717.585C1397.82 714.902 1392.41 711.03 1387.81 705.97C1383.21 700.833 1379.61 694.547 1377 687.11C1374.39 679.673 1373.09 671.202 1373.09 661.695C1373.09 653.032 1374.28 645.02 1376.66 637.66C1379.11 630.3 1382.64 623.975 1387.24 618.685C1391.91 613.318 1397.62 609.14 1404.37 606.15C1411.19 603.16 1419.01 601.665 1427.83 601.665C1436.03 601.665 1443.24 603.007 1449.45 605.69C1455.74 608.297 1461.3 612.015 1466.13 616.845L1460.72 624.205ZM1565.43 649.045C1565.43 644.292 1564.74 639.96 1563.36 636.05C1562.06 632.063 1560.1 628.652 1557.49 625.815C1554.96 622.902 1551.86 620.678 1548.18 619.145C1544.5 617.535 1540.32 616.73 1535.64 616.73C1525.83 616.73 1518.05 619.605 1512.3 625.355C1506.63 631.028 1503.1 638.925 1501.72 649.045H1565.43ZM1581.99 703.67C1579.46 706.737 1576.43 709.42 1572.9 711.72C1569.38 713.943 1565.58 715.783 1561.52 717.24C1557.53 718.697 1553.39 719.77 1549.1 720.46C1544.81 721.227 1540.55 721.61 1536.33 721.61C1528.28 721.61 1520.85 720.268 1514.02 717.585C1507.28 714.825 1501.41 710.838 1496.43 705.625C1491.52 700.335 1487.69 693.818 1484.93 686.075C1482.17 678.332 1480.79 669.438 1480.79 659.395C1480.79 651.268 1482.02 643.678 1484.47 636.625C1487 629.572 1490.6 623.477 1495.28 618.34C1499.96 613.127 1505.67 609.063 1512.41 606.15C1519.16 603.16 1526.75 601.665 1535.18 601.665C1542.16 601.665 1548.6 602.853 1554.5 605.23C1560.48 607.53 1565.62 610.903 1569.91 615.35C1574.28 619.72 1577.7 625.163 1580.15 631.68C1582.6 638.12 1583.83 645.48 1583.83 653.76C1583.83 656.98 1583.48 659.127 1582.79 660.2C1582.1 661.273 1580.8 661.81 1578.88 661.81H1501.03C1501.26 669.17 1502.26 675.572 1504.02 681.015C1505.86 686.458 1508.39 691.02 1511.61 694.7C1514.83 698.303 1518.66 701.025 1523.11 702.865C1527.56 704.628 1532.54 705.51 1538.06 705.51C1543.2 705.51 1547.6 704.935 1551.28 703.785C1555.04 702.558 1558.26 701.255 1560.94 699.875C1563.63 698.495 1565.85 697.23 1567.61 696.08C1569.45 694.853 1571.03 694.24 1572.33 694.24C1574.02 694.24 1575.32 694.892 1576.24 696.195L1581.99 703.67Z" fill="black"/>
</svg>
